<svg xmlns="http://www.w3.org/2000/svg" style="display: none">
  <symbol id="icon-search" viewBox="0 0 26 26">
    <path
      <path d="M10.0334 0.149597C15.4921 0.149693 19.9162 4.59128 19.9163 10.0685C19.9163 12.437 19.0862 14.6091 17.7063 16.3146L25.178 23.8596H25.179C25.5182 24.2009 25.5395 24.7409 25.2424 25.1066L25.179 25.1769C24.8389 25.5182 24.2997 25.54 23.9348 25.2414L23.8645 25.1769L16.4055 17.6437C14.6846 19.1035 12.4628 19.9874 10.0334 19.9875C4.57463 19.9875 0.149658 15.5459 0.149658 10.0685C0.149741 4.59122 4.57468 0.149597 10.0334 0.149597ZM10.0334 2.00018C5.59441 2.00018 1.99447 5.61201 1.99438 10.0685C1.99438 14.5251 5.59436 18.1369 10.0334 18.1369C14.4725 18.1368 18.0725 14.5251 18.0725 10.0685C18.0724 5.61207 14.4724 2.00028 10.0334 2.00018Z" fill="#222222" stroke="#222222" stroke-width="0.3"/>
    />
  </symbol>

  <symbol id="icon-cart" viewBox="0 0 27 27">
    <path d="M12.5 23.5703C12.5 22.7807 11.8599 22.1399 11.0703 22.1396C10.2805 22.1396 9.63965 22.7805 9.63965 23.5703C9.63982 24.3599 10.2806 25 11.0703 25C11.8598 24.9998 12.4998 24.3598 12.5 23.5703ZM23.0869 23.5703C23.0869 22.7806 22.4469 22.1397 21.6572 22.1396C20.8675 22.1396 20.2275 22.7805 20.2275 23.5703C20.2277 24.3599 20.8676 25 21.6572 25C22.4468 24.9999 23.0867 24.3599 23.0869 23.5703ZM1 0C1.30265 0 1.50865 0.000205785 1.70117 0.0146484L1.70215 0.0136719C2.6756 0.0817645 3.61022 0.424344 4.39746 1.00098C5.18466 1.57759 5.79281 2.36494 6.15137 3.27246C6.15404 3.27922 6.15666 3.28615 6.15918 3.29297H22.4248C23.1427 3.2931 23.8509 3.46252 24.4912 3.78711C25.1313 4.11166 25.686 4.58237 26.1104 5.16113C26.5349 5.74024 26.8177 6.41164 26.9346 7.12012C27.0514 7.82827 26.999 8.55376 26.7832 9.23828L26.3105 10.7363L26.3115 10.7373L25.9688 11.832L25.9678 11.834L25.3838 13.6855L25.3828 13.6865L25.376 13.709C24.9643 15.0079 24.6886 15.9296 24.1182 16.6279L24.1191 16.6289C23.638 17.2188 23.0157 17.6741 22.3105 17.9551C21.469 18.2905 20.5018 18.2725 19.123 18.2725H13.6152C12.2363 18.2725 11.2702 18.2901 10.4277 17.9551L10.4258 17.9541C9.72517 17.6741 9.1015 17.2217 8.62109 16.6318L8.5166 16.4971C8.0112 15.813 7.74537 14.9221 7.3584 13.6973L4.4834 4.59375C4.48176 4.58855 4.48007 4.58335 4.47852 4.57812L4.46289 4.52637L4.37793 4.25488C4.35033 4.17206 4.32102 4.08981 4.29102 4.00781L4.20215 3.80273C3.97688 3.33237 3.6384 2.92379 3.21582 2.61426C2.73314 2.2607 2.16032 2.05061 1.56348 2.00879H1.55566C1.45651 2.00109 1.34118 2 1 2C0.447715 2 0 1.55228 0 1C0 0.447715 0.447715 0 1 0ZM9.26562 13.0947C9.67258 14.3828 9.85069 14.8998 10.0703 15.2305L10.167 15.3633L10.1699 15.3662C10.4318 15.6885 10.7761 15.9401 11.168 16.0967C11.5682 16.2557 12.0639 16.2725 13.6152 16.2725H19.123C20.6751 16.2725 21.171 16.2554 21.5693 16.0967C21.961 15.9406 22.3049 15.6894 22.5693 15.3652L22.5703 15.3643C22.8402 15.0342 23.0057 14.5693 23.4697 13.1055L23.4766 13.082L24.0605 11.2314L24.4033 10.1396V10.1377L24.876 8.6377C24.9975 8.2525 25.0267 7.84383 24.9609 7.44531C24.8951 7.04693 24.7368 6.6694 24.498 6.34375C24.2593 6.01805 23.9471 5.75292 23.5869 5.57031C23.2266 5.3877 22.8277 5.293 22.4238 5.29297H6.80176L9.26562 13.0947ZM14.5 23.5703C14.4998 25.4644 12.9644 26.9998 11.0703 27C9.17608 27 7.63982 25.4645 7.63965 23.5703C7.63965 21.676 9.17597 20.1396 11.0703 20.1396C12.9645 20.1399 14.5 21.6761 14.5 23.5703ZM25.0869 23.5703C25.0867 25.4645 23.5514 26.9999 21.6572 27C19.763 27 18.2277 25.4645 18.2275 23.5703C18.2275 21.676 19.7629 20.1396 21.6572 20.1396C23.5515 20.1397 25.0869 21.676 25.0869 23.5703Z" fill="currentColor"/>
  </symbol>

  <symbol id="icon-user" viewBox="0 0 27 27">
      <path d="M25 22.875C25 21.4826 24.4465 20.1477 23.4619 19.1631C22.4773 18.1785 21.1424 17.625 19.75 17.625H7.25C5.85761 17.625 4.52265 18.1785 3.53809 19.1631C2.55352 20.1477 2 21.4826 2 22.875C2 23.4386 2.22356 23.9794 2.62207 24.3779C3.02059 24.7764 3.56142 25 4.125 25H22.875C23.4386 25 23.9794 24.7764 24.3779 24.3779C24.7764 23.9794 25 23.4386 25 22.875ZM27 22.875C27 23.969 26.5656 25.0184 25.792 25.792C25.0184 26.5656 23.969 27 22.875 27H4.125C3.03098 27 1.98159 26.5656 1.20801 25.792C0.43442 25.0184 0 23.969 0 22.875C0 20.9522 0.763408 19.1077 2.12305 17.748C3.48269 16.3884 5.32718 15.625 7.25 15.625H19.75C21.6728 15.625 23.5173 16.3884 24.877 17.748C26.2366 19.1077 27 20.9522 27 22.875Z" fill="#222222"/>
      <path d="M17.1875 5.6875C17.1875 3.65095 15.5366 2 13.5 2C11.4634 2 9.8125 3.65095 9.8125 5.6875C9.8125 7.72405 11.4634 9.375 13.5 9.375C15.5366 9.375 17.1875 7.72405 17.1875 5.6875ZM19.1875 5.6875C19.1875 8.82862 16.6411 11.375 13.5 11.375C10.3589 11.375 7.8125 8.82862 7.8125 5.6875C7.8125 2.54638 10.3589 0 13.5 0C16.6411 0 19.1875 2.54638 19.1875 5.6875Z" fill="#222222"/>
  </symbol>

  <symbol id="icon-user-in" viewBox="0 0 27 27">
      <path d="M1 22.875C1 21.2174 1.65848 19.6277 2.83058 18.4556C4.00268 17.2835 5.5924 16.625 7.25 16.625H19.75C21.4076 16.625 22.9973 17.2835 24.1694 18.4556C25.3415 19.6277 26 21.2174 26 22.875C26 23.7038 25.6708 24.4987 25.0847 25.0847C24.4987 25.6708 23.7038 26 22.875 26H4.125C3.2962 26 2.50134 25.6708 1.91529 25.0847C1.32924 24.4987 1 23.7038 1 22.875Z" fill="#222222"/>
      <path d="M13.5 10.375C16.0888 10.375 18.1875 8.27633 18.1875 5.6875C18.1875 3.09867 16.0888 1 13.5 1C10.9112 1 8.8125 3.09867 8.8125 5.6875C8.8125 8.27633 10.9112 10.375 13.5 10.375Z" fill="#222222"/>
      <path d="M1 22.875H0H1ZM7.25 16.625V15.625V16.625ZM19.75 16.625V15.625V16.625ZM1 22.875H2C2 21.4826 2.55312 20.1473 3.53769 19.1627L2.83058 18.4556L2.12348 17.7485C0.763837 19.1081 0 20.9522 0 22.875H1ZM2.83058 18.4556L3.53769 19.1627C4.52225 18.1781 5.85761 17.625 7.25 17.625V16.625V15.625C5.32718 15.625 3.48311 16.3888 2.12348 17.7485L2.83058 18.4556ZM7.25 16.625V17.625H19.75V16.625V15.625H7.25V16.625ZM19.75 16.625V17.625C21.1424 17.625 22.4777 18.1781 23.4623 19.1627L24.1694 18.4556L24.8765 17.7485C23.5169 16.3888 21.6728 15.625 19.75 15.625V16.625ZM24.1694 18.4556L23.4623 19.1627C24.4469 20.1473 25 21.4826 25 22.875H26H27C27 20.9522 26.2362 19.1081 24.8765 17.7485L24.1694 18.4556ZM26 22.875H25C25 23.4386 24.7761 23.9791 24.3776 24.3776L25.0847 25.0847L25.7918 25.7918C26.5654 25.0182 27 23.969 27 22.875H26ZM25.0847 25.0847L24.3776 24.3776C23.9791 24.7761 23.4386 25 22.875 25V26V27C23.969 27 25.0182 26.5654 25.7918 25.7918L25.0847 25.0847ZM22.875 26V25H4.125V26V27H22.875V26ZM4.125 26V25C3.56142 25 3.02091 24.7761 2.6224 24.3776L1.91529 25.0847L1.20818 25.7918C1.98177 26.5654 3.03098 27 4.125 27V26ZM1.91529 25.0847L2.6224 24.3776C2.22388 23.9791 2 23.4386 2 22.875H1H0C0 23.969 0.434597 25.0182 1.20818 25.7918L1.91529 25.0847ZM18.1875 5.6875H17.1875C17.1875 7.72405 15.5365 9.375 13.5 9.375V10.375V11.375C16.6411 11.375 19.1875 8.82862 19.1875 5.6875H18.1875ZM13.5 10.375V9.375C11.4635 9.375 9.8125 7.72405 9.8125 5.6875H8.8125H7.8125C7.8125 8.82862 10.3589 11.375 13.5 11.375V10.375ZM8.8125 5.6875H9.8125C9.8125 3.65095 11.4635 2 13.5 2V1V0C10.3589 0 7.8125 2.54638 7.8125 5.6875H8.8125ZM13.5 1V2C15.5365 2 17.1875 3.65095 17.1875 5.6875H18.1875H19.1875C19.1875 2.54638 16.6411 0 13.5 0V1Z" fill="#222222"/>
  </symbol>

  <symbol id="icon-menu" viewBox="0 0 24 24">
    <path fill="currentColor" d="M3 6h18v2H3V6zm0 5h18v2H3v-2zm0 5h18v2H3v-2z" />
  </symbol>

  <symbol id="arrow" viewBox="0 0 13 13">
    <path d="M0.21967 11.5333L10.2531 1.49984L1.37839 1.49984C0.964234 1.4998 0.628508 1.16407 0.628466 0.74992C0.628466 0.335732 0.964208 4.13461e-05 1.37839 1.26441e-07L12.0637 0L12.2108 0.0145012C12.3549 0.0433403 12.4886 0.114143 12.594 0.21959C12.7346 0.360235 12.8136 0.551044 12.8136 0.74992V11.4352C12.8135 11.8493 12.4778 12.1851 12.0637 12.1852C11.6496 12.1852 11.3139 11.8493 11.3138 11.4352V2.5605L1.28033 12.594C0.987463 12.8868 0.512569 12.8868 0.21967 12.594C-0.0732235 12.3011 -0.0732231 11.8262 0.21967 11.5333Z" fill="white"/>
  </symbol>

  <symbol id="icon-arrow" viewBox="0 0 13 13">
    <path d="M0.21967 11.5333L10.2531 1.49984L1.37839 1.49984C0.964234 1.4998 0.628508 1.16407 0.628466 0.74992C0.628466 0.335732 0.964208 4.13461e-05 1.37839 1.26441e-07L12.0637 0L12.2108 0.0145012C12.3549 0.0433403 12.4886 0.114143 12.594 0.21959C12.7346 0.360235 12.8136 0.551044 12.8136 0.74992V11.4352C12.8135 11.8493 12.4778 12.1851 12.0637 12.1852C11.6496 12.1852 11.3139 11.8493 11.3138 11.4352V2.5605L1.28033 12.594C0.987463 12.8868 0.512569 12.8868 0.21967 12.594C-0.0732235 12.3011 -0.0732231 11.8262 0.21967 11.5333Z" fill="currentColor"/>
  </symbol>

  <symbol id="icon-rectangle" viewBox="0 0 25 26">
    <path d="M18.4999 19.5C25.5374 12.7331 25 0 25 0V26H0C0 26 11.1808 26.5376 18.4999 19.5Z" fill="#F2F7F8"/>
  </symbol>

  <symbol id="icon-max" viewBox="0 0 14 14">
    <path fill-rule="evenodd" clip-rule="evenodd" d="M7.1504 13.96C5.77648 13.96 5.13799 13.7586 4.02817 12.9528C3.32616 13.8593 1.10316 14.5677 1.0062 13.3557C1.0062 12.4459 0.80563 11.677 0.578313 10.8377C0.307547 9.80359 0 8.652 0 6.98339C0 2.99815 3.25597 0 7.11364 0C10.9746 0 14 3.14588 14 7.02031C14.0129 10.8348 10.9484 13.9397 7.1504 13.96ZM7.20724 3.44468C5.32855 3.34733 3.86436 4.65335 3.5401 6.70137C3.27267 8.39686 3.74736 10.4616 4.15185 10.5691C4.34573 10.6161 4.8338 10.2199 5.13799 9.91439C5.64101 10.2634 6.22677 10.473 6.83619 10.5221C8.78282 10.6161 10.4462 9.12771 10.5768 7.17477C10.6529 5.21768 9.15414 3.56005 7.20724 3.44805V3.44468Z" fill="white"/>
  </symbol>

  <symbol id="icon-telegram" viewBox="0 0 14 11">
    <path fill-rule="evenodd" clip-rule="evenodd" d="M12.5498 0.0752544C12.722 0.00862065 12.9104 -0.0143609 13.0954 0.00870154C13.2805 0.031764 13.4555 0.100027 13.6021 0.206387C13.7488 0.312746 13.8617 0.453313 13.9293 0.613456C13.9968 0.7736 14.0165 0.947466 13.9861 1.11696L12.4063 9.93042C12.2531 10.7806 11.2389 11.2681 10.3912 10.8446C9.6821 10.4904 8.6289 9.94452 7.68158 9.37498C7.20792 9.08989 5.75699 8.17696 5.93531 7.52733C6.08855 6.97189 8.52651 4.88464 9.91963 3.64369C10.4664 3.15616 10.2171 2.87491 9.57135 3.32337C7.96787 4.43682 5.39338 6.13007 4.54219 6.60672C3.7913 7.02698 3.39983 7.09874 2.93174 7.02698C2.07776 6.89629 1.28577 6.69384 0.639364 6.44719C-0.234122 6.11405 -0.191632 5.00957 0.638667 4.68796L12.5498 0.0752544Z" fill="white"/>
  </symbol>

  <symbol id="icon-self-line" viewBox="0 0 40 40">
    <path d="M5.94134 9.47804e-08C4.98581 -0.000213687 4.06592 0.361226 3.36802 1.0111C2.67013 1.66097 2.24641 2.55069 2.18271 3.5L0.0083789 36C-0.0259938 36.5122 0.0456292 37.026 0.218811 37.5096C0.391993 37.9931 0.663046 38.4361 1.01518 38.8111C1.36731 39.1861 1.79302 39.4851 2.26594 39.6896C2.73886 39.8941 3.24891 39.9998 3.7645 40H10.9528C11.4684 39.9998 11.9785 39.8941 12.4514 39.6896C12.9243 39.4851 13.35 39.1861 13.7022 38.8111C14.0543 38.4361 14.3254 37.9931 14.4985 37.5096C14.6717 37.026 14.7433 36.5122 14.709 36L12.5346 3.5C12.4709 2.55069 12.0472 1.66097 11.3493 1.0111C10.6514 0.361226 9.73153 -0.000213687 8.776 9.47804e-08H5.94134ZM4.68846 3.6675C4.70952 3.35048 4.85103 3.05334 5.08421 2.83648C5.3174 2.61962 5.62477 2.49931 5.94385 2.5H8.776C9.09465 2.49994 9.40139 2.62054 9.63405 2.83734C9.8667 3.05414 10.0079 3.35091 10.0289 3.6675L12.2057 36.1675C12.2171 36.3385 12.193 36.5099 12.135 36.6712C12.0771 36.8325 11.9864 36.9803 11.8687 37.1052C11.7509 37.2302 11.6087 37.3297 11.4507 37.3976C11.2927 37.4655 11.1224 37.5004 10.9503 37.5H3.76701C3.59536 37.4997 3.4256 37.4643 3.26822 37.3961C3.11084 37.3279 2.96918 37.2283 2.85199 37.1034C2.73481 36.9785 2.64459 36.831 2.58691 36.6701C2.52923 36.5091 2.50531 36.338 2.51664 36.1675L4.68846 3.6675ZM36.2338 40H15.9719C16.5297 39.2602 16.9156 38.4063 17.1017 37.5H19.9138V27.5C19.9138 26.837 20.1783 26.2011 20.6492 25.7322C21.12 25.2634 21.7587 25 22.4246 25H32.4677C33.1336 25 33.7722 25.2634 34.2431 25.7322C34.7139 26.2011 34.9784 26.837 34.9784 27.5V37.5H36.2338C36.5668 37.5 36.8861 37.3683 37.1215 37.1339C37.357 36.8995 37.4892 36.5815 37.4892 36.25V11.5575L27.0293 20.93C26.8489 21.0921 26.6252 21.1986 26.3852 21.2366C26.1452 21.2745 25.8993 21.2423 25.6773 21.1439C25.4554 21.0454 25.2669 20.8849 25.1347 20.6819C25.0026 20.4788 24.9324 20.242 24.9328 20V11.5575L16.12 19.4575L15.9066 16.2825L25.3496 7.82C25.53 7.65789 25.7538 7.55139 25.9938 7.51343C26.2338 7.47547 26.4797 7.50767 26.7016 7.60614C26.9236 7.7046 27.1121 7.86509 27.2442 8.06813C27.3764 8.27118 27.4465 8.50805 27.4461 8.75V17.1925L37.9035 7.82C38.0839 7.65789 38.3077 7.55139 38.5476 7.51343C38.7876 7.47547 39.0335 7.50767 39.2555 7.60614C39.4775 7.7046 39.666 7.86509 39.7981 8.06813C39.9303 8.27118 40.0004 8.50805 40 8.75V36.25C40 37.2446 39.6032 38.1984 38.8969 38.9016C38.1906 39.6049 37.2327 40 36.2338 40ZM22.4246 37.5H32.4677V27.5H22.4246V37.5Z" fill="white"/>
  </symbol>

  <symbol id="icon-in-control" viewBox="0 0 35 40">
    <path d="M9.99975 1.25C9.99975 0.918479 10.1314 0.600537 10.3659 0.366117C10.6003 0.131696 10.9182 0 11.2497 0H16.2496C16.5811 0 16.899 0.131696 17.1335 0.366117C17.3679 0.600537 17.4996 0.918479 17.4996 1.25V2.5H18.7495C19.081 2.5 19.399 2.6317 19.6334 2.86612C19.8678 3.10054 19.9995 3.41848 19.9995 3.75V7.575C20.0908 7.56406 20.183 7.56322 20.2745 7.5725C23.6526 7.89075 26.8463 9.25848 29.4076 11.4838C31.969 13.7092 33.7696 16.6805 34.5567 19.9811C35.3438 23.2816 35.0781 26.7458 33.7967 29.8876C32.5153 33.0295 30.2827 35.6914 27.4118 37.5H33.7492C34.0807 37.5 34.3986 37.6317 34.633 37.8661C34.8674 38.1005 34.9991 38.4185 34.9991 38.75C34.9991 39.0815 34.8674 39.3995 34.633 39.6339C34.3986 39.8683 34.0807 40 33.7492 40H1.24997C0.918456 40 0.600522 39.8683 0.366108 39.6339C0.131693 39.3995 0 39.0815 0 38.75C0 38.4185 0.131693 38.1005 0.366108 37.8661C0.600522 37.6317 0.918456 37.5 1.24997 37.5H18.7495C22.2916 37.5056 25.6992 36.1439 28.262 33.6989C30.8249 31.2539 32.3454 27.9141 32.5065 24.3756C32.6677 20.8371 31.4571 17.373 29.1271 14.7051C26.7971 12.0372 23.5274 10.3715 19.9995 10.055V23.75C19.9995 24.0815 19.8678 24.3995 19.6334 24.6339C19.399 24.8683 19.081 25 18.7495 25H17.4996V26.25C17.4996 27.2446 17.1045 28.1984 16.4012 28.9017C15.698 29.6049 14.7442 30 13.7497 30C12.7551 30 11.8013 29.6049 11.0981 28.9017C10.3948 28.1984 9.99975 27.2446 9.99975 26.25V25H8.74978C8.41827 25 8.10033 24.8683 7.86592 24.6339C7.63151 24.3995 7.49981 24.0815 7.49981 23.75V3.75C7.49981 3.41848 7.63151 3.10054 7.86592 2.86612C8.10033 2.6317 8.41827 2.5 8.74978 2.5H9.99975V1.25ZM12.4997 25V26.25C12.4997 26.5815 12.6314 26.8995 12.8658 27.1339C13.1002 27.3683 13.4181 27.5 13.7497 27.5C14.0812 27.5 14.3991 27.3683 14.6335 27.1339C14.8679 26.8995 14.9996 26.5815 14.9996 26.25V25H12.4997ZM9.99975 22.5H17.4996V5H9.99975V22.5ZM6.24984 32.5C5.91833 32.5 5.6004 32.6317 5.36598 32.8661C5.13157 33.1005 4.99988 33.4185 4.99988 33.75C4.99988 34.0815 5.13157 34.3995 5.36598 34.6339C5.6004 34.8683 5.91833 35 6.24984 35H21.2495C21.581 35 21.8989 34.8683 22.1333 34.6339C22.3677 34.3995 22.4994 34.0815 22.4994 33.75C22.4994 33.4185 22.3677 33.1005 22.1333 32.8661C21.8989 32.6317 21.581 32.5 21.2495 32.5H6.24984Z" fill="white"/>
  </symbol>

  <symbol id="icon-test-print" viewBox="0 0 42 42">
    <path d="M20 37C20 36.4477 20.4477 36 21 36C21.5523 36 22 36.4477 22 37C22 38.3261 21.4728 39.5975 20.5352 40.5352C19.5975 41.4728 18.3261 42 17 42H1C0.447715 42 0 41.5523 0 41C0 40.4477 0.447715 40 1 40H17C17.7956 40 18.5585 39.6837 19.1211 39.1211C19.6837 38.5585 20 37.7957 20 37ZM23 24H19V26.5137C18.9999 27.1704 19.1296 27.821 19.3809 28.4277C19.6322 29.0345 20.0004 29.5864 20.4648 30.0508L21 30.5859L21.5352 30.0508C21.9996 29.5864 22.3678 29.0345 22.6191 28.4277C22.8704 27.821 23.0001 27.1704 23 26.5137V24ZM18.4688 22H23.5312L26.8643 18H15.1357L18.4688 22ZM14 16H28V2H14V16ZM24 12.0195V12C24 11.4477 24.4477 11 25 11C25.5523 11 26 11.4477 26 12V12.0195C26 12.5718 25.5523 13.0195 25 13.0195C24.4477 13.0195 24 12.5718 24 12.0195ZM24 7.01953V7C24 6.44772 24.4477 6 25 6C25.5523 6 26 6.44772 26 7V7.01953C26 7.57182 25.5523 8.01953 25 8.01953C24.4477 8.01953 24 7.57182 24 7.01953ZM30 2V5H37C37.7957 5 38.5585 4.6837 39.1211 4.12109C39.6837 3.55848 40 2.79565 40 2H30ZM2 2C2 2.79565 2.3163 3.55848 2.87891 4.12109C3.44152 4.6837 4.20435 5 5 5H12V2H2ZM42 2C42 3.32608 41.4728 4.59747 40.5352 5.53516C39.5975 6.47284 38.3261 7 37 7H30V17C30 17.2339 29.9183 17.4609 29.7686 17.6406L25 23.3623V26.5137C25.0001 27.4332 24.8187 28.3438 24.4668 29.1934C24.1149 30.0428 23.5994 30.8148 22.9492 31.4648L21.707 32.707C21.3165 33.0976 20.6835 33.0976 20.293 32.707L19.0508 31.4648C18.4006 30.8148 17.8851 30.0428 17.5332 29.1934C17.1813 28.3438 16.9999 27.4332 17 26.5137V23.3623L12.2314 17.6406C12.0817 17.4609 12 17.2339 12 17V7H5C3.67392 7 2.40253 6.47284 1.46484 5.53516C0.527162 4.59747 0 3.32608 0 2V1C0 0.447715 0.447715 0 1 0H41C41.5523 0 42 0.447715 42 1V2Z" fill="white"/>
  </symbol>

  <symbol id="icon-for-biz" viewBox="0 0 43 40">
    <path d="M16.8627 18.2979C16.8627 17.9593 16.996 17.6346 17.2332 17.3952C17.4703 17.1558 17.792 17.0213 18.1275 17.0213H24.8725C25.208 17.0213 25.5297 17.1558 25.7668 17.3952C26.004 17.6346 26.1373 17.9593 26.1373 18.2979C26.1373 18.6364 26.004 18.9612 25.7668 19.2006C25.5297 19.44 25.208 19.5745 24.8725 19.5745H18.1275C17.792 19.5745 17.4703 19.44 17.2332 19.2006C16.996 18.9612 16.8627 18.6364 16.8627 18.2979ZM43 9.78723V37.0213C43 37.8113 42.6891 38.5689 42.1357 39.1276C41.5823 39.6862 40.8317 40 40.049 40H2.95098C2.16833 40 1.41774 39.6862 0.864322 39.1276C0.310906 38.5689 0 37.8113 0 37.0213V9.78723C0 8.99723 0.310906 8.23958 0.864322 7.68096C1.41774 7.12234 2.16833 6.80851 2.95098 6.80851H11.8039V4.68085C11.8039 3.43941 12.2925 2.24882 13.1621 1.37099C14.0318 0.493159 15.2113 0 16.4412 0H26.5588C27.7887 0 28.9682 0.493159 29.8379 1.37099C30.7075 2.24882 31.1961 3.43941 31.1961 4.68085V6.80851H40.049C40.8317 6.80851 41.5823 7.12234 42.1357 7.68096C42.6891 8.23958 43 8.99723 43 9.78723ZM14.3333 6.80851H28.6667V4.68085C28.6667 4.11656 28.4446 3.57538 28.0493 3.17637C27.654 2.77736 27.1179 2.55319 26.5588 2.55319H16.4412C15.8821 2.55319 15.346 2.77736 14.9507 3.17637C14.5554 3.57538 14.3333 4.11656 14.3333 4.68085V6.80851ZM2.52941 9.78723V18.8915C8.33703 22.1316 14.8643 23.8307 21.5 23.8298C28.136 23.831 34.6635 22.131 40.4706 18.8894V9.78723C40.4706 9.67438 40.4262 9.56614 40.3471 9.48634C40.2681 9.40653 40.1608 9.3617 40.049 9.3617H2.95098C2.83917 9.3617 2.73195 9.40653 2.65289 9.48634C2.57383 9.56614 2.52941 9.67438 2.52941 9.78723ZM40.4706 37.0213V21.7809C34.5958 24.8055 28.0948 26.3826 21.5 26.383C14.9053 26.3837 8.40422 24.8073 2.52941 21.783V37.0213C2.52941 37.1341 2.57383 37.2424 2.65289 37.3222C2.73195 37.402 2.83917 37.4468 2.95098 37.4468H40.049C40.1608 37.4468 40.2681 37.402 40.3471 37.3222C40.4262 37.2424 40.4706 37.1341 40.4706 37.0213Z" fill="white"/>
  </symbol>

  <symbol id="icon-vk" viewBox="0 0 24 24">
    <path
      fill="currentColor"
      d="M12.8 17.5h-1.5c-.8 0-1-.5-.3-1.4.6-.7.8-1 .8-1.3 0-.4-.3-.7-.8-1.1-.7-.5-1.4-1.1-2-1.8-.8-.9-1.4-1.7-1.8-2.4-.3-.5-.1-.8.4-.8h1.5c.4 0 .6.2.8.6.6 1.2 1.4 2.2 2.3 3 .3.3.6.4.9.2.2-.2.3-.5.3-.9V9.6c0-.7-.2-.9-.8-.9H9.7c-.5 0-.5-.2-.2-.5.5-.5 1.2-.8 2.1-.8h3.6c.6 0 .8.3.8.9v4c0 .3.1.4.5.4.2 0 .5-.1.8-.4.9-1.1 1.7-2.3 2.3-3.6.2-.4.4-.5.8-.5h1.5c.6 0 .7.3.5.7-.5 1.1-1.5 2.4-2.8 3.9-.2.3-.3.5-.2.7.1.2.3.4.6.7.7.6 1.3 1.2 1.9 1.8.4.4.3.7-.3.7h-1.7c-.5 0-.8-.2-1.1-.6-.5-.6-1-1.1-1.5-1.6-.2-.2-.5-.3-.7-.1-.2.1-.3.4-.3.7v.9c0 .6-.1.8-.8.8Z"
    />
  </symbol>

  <symbol id="icon-close" viewBox="0 0 24 24">
    <path
      fill="currentColor"
      d="M18.3 5.71 12 12l6.3 6.29-1.41 1.42L10.59 13.4 4.29 19.71 2.88 18.3 9.17 12 2.88 5.71 4.29 4.29 10.59 10.6l6.3-6.31z"
    />
  </symbol>

  <symbol id="icon-chevron-down" viewBox="0 0 24 24">
    <path fill="currentColor" d="M7.41 8.59 12 13.17l4.59-4.58L18 10l-6 6-6-6z" />
  </symbol>

  <symbol id="icon-chevron-left" viewBox="0 0 24 24">
    <path
      fill="none"
      stroke="currentColor"
      stroke-width="2"
      stroke-linecap="round"
      stroke-linejoin="round"
      d="M15 6l-6 6 6 6"
    />
  </symbol>

  <symbol id="icon-chevron-right" viewBox="0 0 24 24">
    <path
      fill="none"
      stroke="currentColor"
      stroke-width="2"
      stroke-linecap="round"
      stroke-linejoin="round"
      d="M9 6l6 6-6 6"
    />
  </symbol>
</svg>
