<svg xmlns="http://www.w3.org/2000/svg" style="display: none">
  <symbol id="icon-search" viewBox="0 0 26 26">
    <path
      <path d="M10.0334 0.149597C15.4921 0.149693 19.9162 4.59128 19.9163 10.0685C19.9163 12.437 19.0862 14.6091 17.7063 16.3146L25.178 23.8596H25.179C25.5182 24.2009 25.5395 24.7409 25.2424 25.1066L25.179 25.1769C24.8389 25.5182 24.2997 25.54 23.9348 25.2414L23.8645 25.1769L16.4055 17.6437C14.6846 19.1035 12.4628 19.9874 10.0334 19.9875C4.57463 19.9875 0.149658 15.5459 0.149658 10.0685C0.149741 4.59122 4.57468 0.149597 10.0334 0.149597ZM10.0334 2.00018C5.59441 2.00018 1.99447 5.61201 1.99438 10.0685C1.99438 14.5251 5.59436 18.1369 10.0334 18.1369C14.4725 18.1368 18.0725 14.5251 18.0725 10.0685C18.0724 5.61207 14.4724 2.00028 10.0334 2.00018Z" fill="#222222" stroke="#222222" stroke-width="0.3"/>
    />
  </symbol>

  <symbol id="icon-cart" viewBox="0 0 27 27">
    <path
      <path d="M12.5 23.5703C12.5 22.7807 11.8599 22.1399 11.0703 22.1396C10.2805 22.1396 9.63965 22.7805 9.63965 23.5703C9.63982 24.3599 10.2806 25 11.0703 25C11.8598 24.9998 12.4998 24.3598 12.5 23.5703ZM23.0869 23.5703C23.0869 22.7806 22.4469 22.1397 21.6572 22.1396C20.8675 22.1396 20.2275 22.7805 20.2275 23.5703C20.2277 24.3599 20.8676 25 21.6572 25C22.4468 24.9999 23.0867 24.3599 23.0869 23.5703ZM1 0C1.30265 0 1.50865 0.000205785 1.70117 0.0146484L1.70215 0.0136719C2.6756 0.0817645 3.61022 0.424344 4.39746 1.00098C5.18466 1.57759 5.79281 2.36494 6.15137 3.27246C6.15404 3.27922 6.15666 3.28615 6.15918 3.29297H22.4248C23.1427 3.2931 23.8509 3.46252 24.4912 3.78711C25.1313 4.11166 25.686 4.58237 26.1104 5.16113C26.5349 5.74024 26.8177 6.41164 26.9346 7.12012C27.0514 7.82827 26.999 8.55376 26.7832 9.23828L26.3105 10.7363L26.3115 10.7373L25.9688 11.832L25.9678 11.834L25.3838 13.6855L25.3828 13.6865L25.376 13.709C24.9643 15.0079 24.6886 15.9296 24.1182 16.6279L24.1191 16.6289C23.638 17.2188 23.0157 17.6741 22.3105 17.9551C21.469 18.2905 20.5018 18.2725 19.123 18.2725H13.6152C12.2363 18.2725 11.2702 18.2901 10.4277 17.9551L10.4258 17.9541C9.72517 17.6741 9.1015 17.2217 8.62109 16.6318L8.5166 16.4971C8.0112 15.813 7.74537 14.9221 7.3584 13.6973L4.4834 4.59375C4.48176 4.58855 4.48007 4.58335 4.47852 4.57812L4.46289 4.52637L4.37793 4.25488C4.35033 4.17206 4.32102 4.08981 4.29102 4.00781L4.20215 3.80273C3.97688 3.33237 3.6384 2.92379 3.21582 2.61426C2.73314 2.2607 2.16032 2.05061 1.56348 2.00879H1.55566C1.45651 2.00109 1.34118 2 1 2C0.447715 2 0 1.55228 0 1C0 0.447715 0.447715 0 1 0ZM9.26562 13.0947C9.67258 14.3828 9.85069 14.8998 10.0703 15.2305L10.167 15.3633L10.1699 15.3662C10.4318 15.6885 10.7761 15.9401 11.168 16.0967C11.5682 16.2557 12.0639 16.2725 13.6152 16.2725H19.123C20.6751 16.2725 21.171 16.2554 21.5693 16.0967C21.961 15.9406 22.3049 15.6894 22.5693 15.3652L22.5703 15.3643C22.8402 15.0342 23.0057 14.5693 23.4697 13.1055L23.4766 13.082L24.0605 11.2314L24.4033 10.1396V10.1377L24.876 8.6377C24.9975 8.2525 25.0267 7.84383 24.9609 7.44531C24.8951 7.04693 24.7368 6.6694 24.498 6.34375C24.2593 6.01805 23.9471 5.75292 23.5869 5.57031C23.2266 5.3877 22.8277 5.293 22.4238 5.29297H6.80176L9.26562 13.0947ZM14.5 23.5703C14.4998 25.4644 12.9644 26.9998 11.0703 27C9.17608 27 7.63982 25.4645 7.63965 23.5703C7.63965 21.676 9.17597 20.1396 11.0703 20.1396C12.9645 20.1399 14.5 21.6761 14.5 23.5703ZM25.0869 23.5703C25.0867 25.4645 23.5514 26.9999 21.6572 27C19.763 27 18.2277 25.4645 18.2275 23.5703C18.2275 21.676 19.7629 20.1396 21.6572 20.1396C23.5515 20.1397 25.0869 21.676 25.0869 23.5703Z" fill="#222222"/>
    />
  </symbol>

  <symbol id="icon-user" viewBox="0 0 27 27">
      <path d="M25 22.875C25 21.4826 24.4465 20.1477 23.4619 19.1631C22.4773 18.1785 21.1424 17.625 19.75 17.625H7.25C5.85761 17.625 4.52265 18.1785 3.53809 19.1631C2.55352 20.1477 2 21.4826 2 22.875C2 23.4386 2.22356 23.9794 2.62207 24.3779C3.02059 24.7764 3.56142 25 4.125 25H22.875C23.4386 25 23.9794 24.7764 24.3779 24.3779C24.7764 23.9794 25 23.4386 25 22.875ZM27 22.875C27 23.969 26.5656 25.0184 25.792 25.792C25.0184 26.5656 23.969 27 22.875 27H4.125C3.03098 27 1.98159 26.5656 1.20801 25.792C0.43442 25.0184 0 23.969 0 22.875C0 20.9522 0.763408 19.1077 2.12305 17.748C3.48269 16.3884 5.32718 15.625 7.25 15.625H19.75C21.6728 15.625 23.5173 16.3884 24.877 17.748C26.2366 19.1077 27 20.9522 27 22.875Z" fill="#222222"/>
      <path d="M17.1875 5.6875C17.1875 3.65095 15.5366 2 13.5 2C11.4634 2 9.8125 3.65095 9.8125 5.6875C9.8125 7.72405 11.4634 9.375 13.5 9.375C15.5366 9.375 17.1875 7.72405 17.1875 5.6875ZM19.1875 5.6875C19.1875 8.82862 16.6411 11.375 13.5 11.375C10.3589 11.375 7.8125 8.82862 7.8125 5.6875C7.8125 2.54638 10.3589 0 13.5 0C16.6411 0 19.1875 2.54638 19.1875 5.6875Z" fill="#222222"/>
  </symbol>

  <symbol id="icon-user-in" viewBox="0 0 27 27">
      <path d="M1 22.875C1 21.2174 1.65848 19.6277 2.83058 18.4556C4.00268 17.2835 5.5924 16.625 7.25 16.625H19.75C21.4076 16.625 22.9973 17.2835 24.1694 18.4556C25.3415 19.6277 26 21.2174 26 22.875C26 23.7038 25.6708 24.4987 25.0847 25.0847C24.4987 25.6708 23.7038 26 22.875 26H4.125C3.2962 26 2.50134 25.6708 1.91529 25.0847C1.32924 24.4987 1 23.7038 1 22.875Z" fill="#222222"/>
      <path d="M13.5 10.375C16.0888 10.375 18.1875 8.27633 18.1875 5.6875C18.1875 3.09867 16.0888 1 13.5 1C10.9112 1 8.8125 3.09867 8.8125 5.6875C8.8125 8.27633 10.9112 10.375 13.5 10.375Z" fill="#222222"/>
      <path d="M1 22.875H0H1ZM7.25 16.625V15.625V16.625ZM19.75 16.625V15.625V16.625ZM1 22.875H2C2 21.4826 2.55312 20.1473 3.53769 19.1627L2.83058 18.4556L2.12348 17.7485C0.763837 19.1081 0 20.9522 0 22.875H1ZM2.83058 18.4556L3.53769 19.1627C4.52225 18.1781 5.85761 17.625 7.25 17.625V16.625V15.625C5.32718 15.625 3.48311 16.3888 2.12348 17.7485L2.83058 18.4556ZM7.25 16.625V17.625H19.75V16.625V15.625H7.25V16.625ZM19.75 16.625V17.625C21.1424 17.625 22.4777 18.1781 23.4623 19.1627L24.1694 18.4556L24.8765 17.7485C23.5169 16.3888 21.6728 15.625 19.75 15.625V16.625ZM24.1694 18.4556L23.4623 19.1627C24.4469 20.1473 25 21.4826 25 22.875H26H27C27 20.9522 26.2362 19.1081 24.8765 17.7485L24.1694 18.4556ZM26 22.875H25C25 23.4386 24.7761 23.9791 24.3776 24.3776L25.0847 25.0847L25.7918 25.7918C26.5654 25.0182 27 23.969 27 22.875H26ZM25.0847 25.0847L24.3776 24.3776C23.9791 24.7761 23.4386 25 22.875 25V26V27C23.969 27 25.0182 26.5654 25.7918 25.7918L25.0847 25.0847ZM22.875 26V25H4.125V26V27H22.875V26ZM4.125 26V25C3.56142 25 3.02091 24.7761 2.6224 24.3776L1.91529 25.0847L1.20818 25.7918C1.98177 26.5654 3.03098 27 4.125 27V26ZM1.91529 25.0847L2.6224 24.3776C2.22388 23.9791 2 23.4386 2 22.875H1H0C0 23.969 0.434597 25.0182 1.20818 25.7918L1.91529 25.0847ZM18.1875 5.6875H17.1875C17.1875 7.72405 15.5365 9.375 13.5 9.375V10.375V11.375C16.6411 11.375 19.1875 8.82862 19.1875 5.6875H18.1875ZM13.5 10.375V9.375C11.4635 9.375 9.8125 7.72405 9.8125 5.6875H8.8125H7.8125C7.8125 8.82862 10.3589 11.375 13.5 11.375V10.375ZM8.8125 5.6875H9.8125C9.8125 3.65095 11.4635 2 13.5 2V1V0C10.3589 0 7.8125 2.54638 7.8125 5.6875H8.8125ZM13.5 1V2C15.5365 2 17.1875 3.65095 17.1875 5.6875H18.1875H19.1875C19.1875 2.54638 16.6411 0 13.5 0V1Z" fill="#222222"/>
  </symbol>

  <symbol id="icon-menu" viewBox="0 0 24 24">
    <path fill="currentColor" d="M3 6h18v2H3V6zm0 5h18v2H3v-2zm0 5h18v2H3v-2z" />
  </symbol>

  <symbol id="arrow" viewBox="0 0 13 13">
    <path d="M0.21967 11.5333L10.2531 1.49984L1.37839 1.49984C0.964234 1.4998 0.628508 1.16407 0.628466 0.74992C0.628466 0.335732 0.964208 4.13461e-05 1.37839 1.26441e-07L12.0637 0L12.2108 0.0145012C12.3549 0.0433403 12.4886 0.114143 12.594 0.21959C12.7346 0.360235 12.8136 0.551044 12.8136 0.74992V11.4352C12.8135 11.8493 12.4778 12.1851 12.0637 12.1852C11.6496 12.1852 11.3139 11.8493 11.3138 11.4352V2.5605L1.28033 12.594C0.987463 12.8868 0.512569 12.8868 0.21967 12.594C-0.0732235 12.3011 -0.0732231 11.8262 0.21967 11.5333Z" fill="white"/>
  </symbol>

  <symbol id="icon-rectangle" viewBox="0 0 25 26">
    <path d="M18.4999 19.5C25.5374 12.7331 25 0 25 0V26H0C0 26 11.1808 26.5376 18.4999 19.5Z" fill="#F2F7F8"/>
  </symbol>

  <symbol id="icon-close" viewBox="0 0 24 24">
    <path
      fill="currentColor"
      d="M18.3 5.71 12 12l6.3 6.29-1.41 1.42L10.59 13.4 4.29 19.71 2.88 18.3 9.17 12 2.88 5.71 4.29 4.29 10.59 10.6l6.3-6.31z"
    />
  </symbol>

  <symbol id="icon-chevron-down" viewBox="0 0 24 24">
    <path fill="currentColor" d="M7.41 8.59 12 13.17l4.59-4.58L18 10l-6 6-6-6z" />
  </symbol>
</svg>
