<svg width="613" height="132" viewBox="0 0 613 132" fill="none" xmlns="http://www.w3.org/2000/svg">
<path fill-rule="evenodd" clip-rule="evenodd" d="M62.7557 1.40996C39.1358 12.1497 19.5621 26.4197 2.455 45.3723C-0.0538139 48.1518 -0.0903289 48.2125 0.0413261 49.3786C0.114691 50.0299 0.369961 52.3035 0.608816 54.4307C3.22651 77.7715 11.3734 102.164 23.7486 123.714C25.7087 127.127 25.0407 126.752 31.4797 128.057C54.3639 132.693 79.1248 132.692 102.027 128.054C108.637 126.715 107.895 127.139 109.983 123.504C123.022 100.795 131.119 75.3615 133.225 50.4958L133.418 48.2188L132.17 46.7659C116.109 28.0726 93.0745 11.1585 70.0382 1.1423C66.4534 -0.416457 66.8005 -0.429522 62.7557 1.40996ZM74.6267 8.67645C94.1961 18.4085 108.708 29.1583 124.457 45.5898L128.429 49.734L128.262 51.795C126.566 72.7492 118.166 99.2236 106.96 118.933C104.709 122.892 105.4 122.413 100.587 123.359C78.1426 127.768 56.1096 127.76 33.1132 123.334L28.6128 122.468L27.3803 120.36C16.4942 101.751 8.49606 77.6818 5.6767 55.0445C4.92127 48.9796 4.31526 50.1927 11.9184 42.5506C26.9613 27.4301 42.9491 16.0598 61.5122 7.2795C67.1512 4.61223 66.2635 4.51742 74.6267 8.67645ZM63.9989 28.7359C63.9989 29.6364 64.0588 29.7031 64.8685 29.7031H65.7378L65.5874 32.9495C65.3992 37.0087 64.2809 40.8331 63.2391 40.9812C62.6398 41.0663 62.6173 41.1728 62.6173 43.9509V46.8329H65.6564V43.2247L72.7018 43.3794L72.5223 46.8329H75.6029V41.344L74.0834 41.1691L73.9989 36.8865C73.8783 30.7593 74.0358 29.7031 75.0703 29.7031C75.8106 29.7031 75.8793 29.621 75.8793 28.7359V27.7691H63.9989V28.7359ZM46.8043 30.5111L45.9018 31.3188L45.9836 34.0782C46.0603 36.6747 46.0285 36.8633 45.4422 37.2741C44.6734 37.8124 44.5437 37.6804 43.993 35.8004C43.4258 33.8638 43.4376 33.6658 44.1324 33.4842C44.6617 33.3458 44.7149 31.9305 44.2111 31.3827C43.9659 31.1164 38.5804 32.8279 38.5804 33.1723C38.5804 34.1994 39.0996 34.8822 39.782 34.7518C40.5984 34.5957 41.9652 38.1471 41.2648 38.6043C40.4581 39.131 39.8108 38.6579 38.8564 36.8453C37.353 33.9887 36.1855 33.1539 34.4599 33.7016C33.537 33.9944 33.6197 36.0577 34.5544 36.0577C35.3771 36.0577 36.0421 36.6912 36.5731 37.9806C37.0886 39.2338 37.9848 40.202 38.6283 40.202C38.906 40.202 39.1328 40.3262 39.1328 40.4783C39.1328 40.6301 39.0236 40.7547 38.8899 40.7547C38.3144 40.7547 37.9536 42.4699 38.1302 44.369C38.3013 46.2112 38.2759 46.3328 37.5804 46.9773L36.8508 47.6537L37.5798 48.6095C38.3945 49.6778 39.3559 49.6208 40.4185 48.4416C40.9381 47.8647 41.0581 45.0142 40.6564 42.7848C40.4825 41.8207 41.0303 41.0307 41.8728 41.0307C43.0155 41.0307 43.794 45.7003 42.6557 45.7234C42.3666 45.7295 42.4041 46.8876 42.7086 47.3693C43.2201 48.1776 48.5637 46.3944 48.3473 45.4876C48.0934 44.423 48.0153 44.3462 47.1865 44.3462C46.4918 44.3462 46.3943 44.2052 45.9588 42.5704C45.6985 41.5939 45.4124 40.6043 45.3233 40.3718C45.1005 39.7916 46.4449 39.4589 47.0345 39.9484C47.2736 40.147 47.9527 41.2703 48.5433 42.4451C49.7627 44.8705 50.4139 45.4514 51.9124 45.4514C53.0276 45.4514 53.0913 45.374 53.3181 43.7406C53.4537 42.7644 53.4229 42.7171 52.5938 42.6354C51.8464 42.562 51.5888 42.3037 50.7188 40.7547C50.0474 39.5591 49.3825 38.7722 48.7302 38.401C47.8174 37.8814 47.7782 37.8057 48.1624 37.2958C48.4719 36.8844 48.544 36.2379 48.4508 34.6966C48.3363 32.7938 48.3765 32.5991 49.0039 32.0176C49.6736 31.3968 49.6753 31.3814 49.1821 30.5466C48.5584 29.4903 47.954 29.4813 46.8043 30.5111ZM70.7679 40.8927L69.9552 40.9852C69.5083 41.0361 68.6209 40.9996 67.9833 40.9038L66.8242 40.7299L67.3489 39.3487C67.8828 37.9434 68.4061 34.0567 68.4148 31.43L68.4195 29.9794H70.9176L70.7679 40.8927ZM90.3299 30.7968C89.953 30.9576 89.618 31.4548 89.4471 32.1063C88.7008 34.9522 88.6539 34.7843 90.2836 35.0899C91.2702 35.2751 91.2886 35.2617 91.6628 34.0788C92.4658 31.5409 95.9344 33.6326 95.8902 36.6282C95.8621 38.5249 95.7773 38.5447 92.0025 37.5467C91.5131 37.4174 91.354 37.5612 91.085 38.3762C90.6592 39.6663 90.7633 39.7839 92.6879 40.1926C95.0674 40.6974 95.123 40.7567 94.5706 42.2032C93.3965 45.2772 88.3661 46.3891 89.025 43.429C89.361 41.9192 89.3111 41.7785 88.3477 41.5219C86.9969 41.1624 86.7799 41.348 86.3866 43.2022C85.9303 45.3512 86.0522 45.6062 87.9634 46.4996C90.1057 47.5009 93.108 47.5475 94.8882 46.6065C98.724 44.5794 100.199 35.6148 97.1967 32.5753C95.7699 31.1308 91.8973 30.1278 90.3299 30.7968ZM56.2778 41.0157C55.5033 41.7905 55.5217 43.3205 56.315 44.0591C58.1454 45.7646 61.1353 43.3419 59.6556 41.352C58.9196 40.3621 57.1116 40.1822 56.2778 41.0157ZM79.2893 41.4636C78.7174 42.0354 78.6132 42.3426 78.7503 43.0521C79.2548 45.6648 83.0627 45.4752 83.0627 42.8374C83.0627 40.8713 80.7308 40.0221 79.2893 41.4636ZM14.5431 52.8569C14.7709 52.9983 26.6132 58.1767 40.8591 64.3645L66.7606 75.6148L92.9998 64.2084C107.431 57.9348 119.211 52.7738 119.177 52.7397C119.143 52.7055 117.347 52.9765 115.186 53.3417C104.689 55.1162 91.3178 56.834 81.5431 57.6645C79.1017 57.8719 73.0278 58.0166 66.7616 58.0166C55.7371 58.0166 52.5901 57.8417 41.6195 56.6203C33.8076 55.7503 18.7876 53.5802 14.8644 52.7547C14.3431 52.6452 14.2493 52.675 14.5431 52.8569ZM48.02 98.6648C37.7962 111.219 29.4694 121.528 29.516 121.572C29.5629 121.617 37.8689 116.015 47.9741 109.124C58.0794 102.233 66.5077 96.5875 66.7036 96.5794C66.9951 96.5677 75.5838 102.349 102.886 120.934C103.532 121.374 104.061 121.673 104.061 121.599C104.061 121.393 67.0487 75.9913 66.8142 75.9099C66.7013 75.8704 58.2439 86.1103 48.02 98.6648Z" fill="#E6342A"/>
<path d="M178.3 59H173.116C172.576 59 172.036 58.946 172.036 57.92V42.692H170.47C167.122 42.692 166.69 44.69 166.366 46.31L165.07 52.79C164.746 54.518 164.476 56.678 162.802 58.136C160.804 59.918 157.24 59.918 157.132 59.918C156.214 59.918 156.16 59.486 155.998 59.108L154.594 55.004C154.486 54.68 154.432 54.086 155.134 53.924L156.538 53.6C158.158 53.222 158.428 52.52 158.914 49.982L159.778 45.446C160.372 42.368 161.668 40.748 164.638 39.722V39.56C161.722 38.534 160.804 36.482 160.426 34.322L159.778 30.488C159.346 27.788 158.644 27.356 157.402 27.032L156.052 26.708C155.566 26.6 155.35 26.114 155.512 25.574L156.646 21.74C156.808 21.2 157.24 21.092 157.672 21.092C158.752 21.092 160.696 21.47 162.262 22.442C164.692 23.9 165.178 26.006 165.556 28.22L166.366 32.81C166.96 36.104 168.364 36.86 170.956 36.86H172.036V23.09C172.036 22.064 172.576 22.01 173.116 22.01H178.3C178.84 22.01 179.38 22.064 179.38 23.09V36.86H180.46C183.052 36.86 184.456 36.104 185.05 32.81L185.86 28.22C186.238 26.006 186.724 23.9 189.154 22.442C190.72 21.47 192.664 21.092 193.744 21.092C194.176 21.092 194.608 21.2 194.77 21.74L195.904 25.574C196.066 26.114 195.85 26.6 195.364 26.708L194.014 27.032C192.772 27.356 192.07 27.788 191.638 30.488L190.99 34.322C190.612 36.482 189.694 38.534 186.778 39.56V39.722C189.748 40.748 191.044 42.368 191.638 45.446L192.502 49.982C192.988 52.52 193.258 53.222 194.878 53.6L196.282 53.924C196.984 54.086 196.93 54.68 196.822 55.004L195.418 59.108C195.256 59.486 195.202 59.918 194.284 59.918C194.176 59.918 190.612 59.918 188.614 58.136C186.94 56.678 186.67 54.518 186.346 52.79L185.05 46.31C184.726 44.69 184.294 42.692 180.946 42.692H179.38V57.92C179.38 58.46 179.326 59 178.3 59Z" fill="#E6342A"/>
<path d="M219.108 30.812L218.19 34.43C218.028 35.132 217.704 35.294 217.002 35.294H208.254V40.964H215.706C216.624 40.964 216.894 41.126 216.894 42.044V45.392C216.894 46.256 216.624 46.526 215.706 46.526H208.254V53.438H217.65C218.622 53.438 218.838 53.654 218.838 54.518V57.866C218.838 58.784 218.622 59 217.65 59H202.584C201.612 59 201.396 58.784 201.396 57.866V30.812C201.396 29.948 201.612 29.732 202.584 29.732H218.298C218.946 29.732 219.216 29.894 219.216 30.272C219.216 30.434 219.162 30.596 219.108 30.812Z" fill="#E6342A"/>
<path d="M233.184 35.294V38.588C233.184 41.774 233.13 44.69 232.914 47.552C232.698 50.522 232.266 53.816 229.944 56.462C227.514 59.216 224.058 59.702 222.546 59.702C222.168 59.702 221.628 59.648 221.52 59.216L220.332 54.95C220.278 54.788 220.278 54.68 220.278 54.572C220.278 53.978 220.764 53.87 221.088 53.816L221.898 53.708C227.676 52.844 226.812 43.664 226.812 36.698V30.596C226.812 30.002 227.082 29.732 227.676 29.732H244.308C244.74 29.732 245.118 29.948 245.118 30.596V58.136C245.118 58.622 245.01 59 244.308 59H239.124C238.584 59 238.206 58.784 238.206 58.136V35.294H233.184Z" fill="#E6342A"/>
<path d="M272.407 59H257.071V66.668C257.071 67.64 256.477 67.748 255.991 67.748H251.293C250.321 67.748 250.213 67.154 250.213 66.668V54.248C250.213 53.762 250.321 53.168 251.293 53.168H252.319C254.047 50.09 254.803 47.39 255.343 44.096C256.099 39.452 256.153 34.484 256.153 33.512L256.207 23.09C256.207 22.604 256.315 22.01 257.287 22.01H274.945C275.917 22.01 276.025 22.604 276.025 23.09V53.168H278.185C279.157 53.168 279.265 53.762 279.265 54.248V66.668C279.265 67.154 279.157 67.748 278.185 67.748H273.487C272.515 67.748 272.407 67.154 272.407 66.668V59ZM268.681 53.168V27.842H263.119V34.592C263.119 37.562 262.633 42.854 261.877 46.31C261.283 49.172 260.365 51.44 259.501 53.168H268.681Z" fill="#E6342A"/>
<path d="M306.847 43.934C306.847 54.356 302.851 59.702 294.913 59.702C287.083 59.702 283.249 54.518 283.249 43.934C283.249 36.86 285.571 29.03 295.075 29.03C302.851 29.03 306.847 34.106 306.847 43.934ZM299.611 44.312C299.611 37.13 297.883 34.484 295.075 34.484C292.321 34.484 290.431 37.4 290.431 44.474C290.431 51.548 292.267 54.248 295.075 54.248C297.775 54.248 299.611 51.494 299.611 44.312Z" fill="#E6342A"/>
<path d="M332.748 37.886C332.748 43.718 328.212 47.714 321.948 47.714H319.788V57.866C319.788 58.784 319.518 59 318.6 59H314.118C313.146 59 312.93 58.784 312.93 57.866V30.812C312.93 29.894 313.146 29.732 314.118 29.732H321.678C330.318 29.732 332.748 32.702 332.748 37.886ZM326.214 38.21C326.214 35.456 324.702 35.024 321.462 35.024H319.788V41.99H321.03C324.756 41.99 326.214 41.18 326.214 38.21Z" fill="#E6342A"/>
<path d="M334.648 55.652L336.322 52.628C336.484 52.358 336.592 52.088 337.024 52.088C337.402 52.088 337.834 52.412 338.374 52.736C340.534 53.978 342.154 54.086 342.91 54.086C346.528 54.086 347.932 51.764 348.58 50.144C349.228 48.578 349.768 45.662 349.768 43.718V42.908H340.912C340.426 42.908 339.832 43.07 339.832 41.774V38.156C339.832 37.724 339.724 36.968 340.966 36.968H349.768V36.158C349.768 33.35 349.066 30.272 347.608 28.652C346.636 27.518 345.232 26.924 343.45 26.924C341.56 26.924 340.264 27.626 338.698 28.868C338.428 29.084 337.942 29.462 337.564 29.462C337.24 29.462 337.132 29.192 336.97 28.922L334.972 25.898C334.81 25.628 334.702 25.412 334.702 25.196C334.702 25.034 334.972 24.494 335.782 23.792C338.374 21.632 341.776 21.092 343.882 21.092C349.606 21.092 357.436 24.386 357.436 40.856C357.436 48.308 355.762 59.918 343.288 59.918C340.21 59.918 336.862 58.946 334.972 57.38C334.756 57.218 334.324 56.84 334.324 56.462C334.324 56.084 334.54 55.868 334.648 55.652Z" fill="#E6342A"/>
<path d="M370.077 59H364.893C364.191 59 364.029 58.73 364.029 58.136V30.596C364.029 30.002 364.191 29.732 364.893 29.732H370.077C370.833 29.732 370.941 30.272 370.941 30.596V41.234H372.561C374.181 41.234 376.179 41.18 376.773 37.508L377.205 35.024C377.691 32.432 379.851 29.03 384.225 29.03C384.873 29.03 385.143 29.138 385.305 29.732L386.331 33.296C386.385 33.404 386.385 33.512 386.385 33.62C386.385 34.052 386.115 34.322 385.791 34.43L385.035 34.646C383.361 35.078 382.929 35.78 382.605 37.508L382.173 39.776C381.903 41.396 380.931 42.962 378.771 43.664V43.772C381.201 44.42 382.389 46.31 382.821 48.524L383.307 51.008C383.631 52.682 384.225 53.492 385.953 53.762L386.547 53.87C386.925 53.978 387.141 54.248 387.141 54.518C387.141 54.572 387.087 54.68 387.087 54.734L385.899 58.892C385.737 59.54 385.467 59.702 384.603 59.702C383.307 59.702 380.715 59.162 379.473 58.136C378.177 57.056 377.799 55.274 377.583 54.14L376.935 50.306C376.503 47.714 375.477 46.364 372.885 46.364H370.941V58.136C370.941 58.838 370.671 59 370.077 59Z" fill="#E6342A"/>
<path d="M409.964 55.706C410.072 55.868 410.126 56.084 410.126 56.3C410.126 58.514 405.266 59.702 402.134 59.702C394.196 59.702 389.93 54.194 389.93 44.042C389.93 34.538 394.682 29.03 401.864 29.03C404.24 29.03 410.126 30.542 410.126 32.432C410.126 32.594 410.072 32.756 409.964 32.918L407.858 36.266C407.642 36.536 407.426 36.698 407.156 36.698C406.994 36.698 406.832 36.644 406.67 36.536C405.212 35.564 403.97 34.862 402.188 34.862C399.38 34.862 397.112 37.13 397.112 43.124C397.112 51.008 399.218 53.87 402.89 53.87C404.132 53.87 405.374 53.6 406.778 52.628C406.994 52.466 407.156 52.412 407.318 52.412C407.534 52.412 407.696 52.574 407.966 52.898L409.964 55.706Z" fill="#E6342A"/>
<path d="M436.195 57.866C436.195 58.784 436.033 59 435.061 59H430.579C429.607 59 429.445 58.784 429.445 57.866V35.294H421.777V57.866C421.777 58.784 421.453 59 420.535 59H416.053C415.081 59 414.865 58.784 414.865 57.866V30.812C414.865 29.948 415.081 29.732 416.053 29.732H435.061C436.033 29.732 436.195 29.948 436.195 30.812V57.866Z" fill="#E6342A"/>
<path d="M461.897 30.812L460.979 34.43C460.817 35.132 460.493 35.294 459.791 35.294H451.043V40.964H458.495C459.413 40.964 459.683 41.126 459.683 42.044V45.392C459.683 46.256 459.413 46.526 458.495 46.526H451.043V53.438H460.439C461.411 53.438 461.627 53.654 461.627 54.518V57.866C461.627 58.784 461.411 59 460.439 59H445.373C444.401 59 444.185 58.784 444.185 57.866V30.812C444.185 29.948 444.401 29.732 445.373 29.732H461.087C461.735 29.732 462.005 29.894 462.005 30.272C462.005 30.434 461.951 30.596 461.897 30.812Z" fill="#E6342A"/>
<path d="M483.911 59H470.573V65.048C470.573 65.642 470.411 65.912 469.709 65.912H465.605C465.011 65.912 464.741 65.642 464.741 65.048V54.41C464.741 53.978 464.957 53.6 465.605 53.6H466.739C469.547 48.362 469.817 45.662 469.817 38.102V30.596C469.817 30.002 469.979 29.732 470.681 29.732H486.287C486.881 29.732 487.151 29.894 487.151 30.596V53.6H488.879C489.635 53.6 489.743 54.14 489.743 54.41V65.048C489.743 65.75 489.473 65.912 488.879 65.912H484.775C484.073 65.912 483.911 65.642 483.911 65.048V59ZM480.779 53.6V34.862H475.865V38.588C475.865 41.126 475.757 47.876 473.057 53.6H480.779Z" fill="#E6342A"/>
<path d="M495.865 58.136V30.596C495.865 30.002 496.135 29.732 496.729 29.732H501.427C502.021 29.732 502.291 29.894 502.291 30.596V42.368C502.291 44.852 502.291 46.256 502.129 48.578H502.291C503.371 45.608 504.181 43.88 505.153 41.99L511.147 30.434C511.309 30.164 511.579 29.732 512.227 29.732H517.411C518.113 29.732 518.275 30.002 518.275 30.596V58.136C518.275 58.73 518.005 59 517.411 59H512.713C512.119 59 511.849 58.838 511.849 58.136V45.122C511.849 43.988 511.957 41.288 512.011 40.208H511.849C510.985 42.962 510.391 44.096 509.473 45.932L503.155 58.19C502.993 58.46 502.669 59 501.967 59H496.729C496.135 59 495.865 58.838 495.865 58.136Z" fill="#E6342A"/>
<path d="M533.205 53.384H540.117V30.596C540.117 29.732 540.549 29.732 540.981 29.732H546.165C546.597 29.732 547.029 29.732 547.029 30.596V53.384H549.297C549.945 53.384 550.161 53.762 550.161 54.194V65.048C550.161 65.75 549.891 65.912 549.297 65.912H545.085C544.491 65.912 544.221 65.642 544.221 65.048V59H527.157C526.563 59 526.293 58.73 526.293 58.136V30.596C526.293 29.894 526.563 29.732 527.157 29.732H532.341C533.043 29.732 533.205 30.002 533.205 30.596V53.384Z" fill="#E6342A"/>
<path d="M555.455 58.136V30.596C555.455 30.002 555.725 29.732 556.319 29.732H561.017C561.611 29.732 561.881 29.894 561.881 30.596V42.368C561.881 44.852 561.881 46.256 561.719 48.578H561.881C562.961 45.608 563.771 43.88 564.743 41.99L570.737 30.434C570.899 30.164 571.169 29.732 571.817 29.732H577.001C577.703 29.732 577.865 30.002 577.865 30.596V58.136C577.865 58.73 577.595 59 577.001 59H572.303C571.709 59 571.439 58.838 571.439 58.136V45.122C571.439 43.988 571.547 41.288 571.601 40.208H571.439C570.575 42.962 569.981 44.096 569.063 45.932L562.745 58.19C562.583 58.46 562.259 59 561.557 59H556.319C555.725 59 555.455 58.838 555.455 58.136Z" fill="#E6342A"/>
<path d="M595.117 29.732H604.999C605.593 29.732 605.863 30.002 605.863 30.596V58.136C605.863 58.73 605.593 59 604.999 59H599.815C599.221 59 598.951 58.838 598.951 58.136V47.66H596.953C594.253 47.66 593.173 49.658 592.957 51.008L592.471 53.438C592.147 54.95 591.715 56.624 590.635 57.704C589.231 59.108 586.315 59.648 585.127 59.648C584.695 59.648 584.155 59.594 583.993 59.054L582.643 54.896C582.589 54.734 582.589 54.626 582.589 54.518C582.589 54.14 582.859 53.924 583.183 53.816L583.777 53.708C585.019 53.492 585.991 53.114 586.423 51.224L586.855 49.28C587.233 47.66 588.097 45.878 590.257 45.176V45.068C587.233 44.258 585.181 41.504 585.181 38.156C585.181 35.888 585.775 33.62 587.719 31.892C589.879 30.002 592.633 29.732 595.117 29.732ZM598.951 42.53V34.862H595.981C593.605 34.862 591.823 36.32 591.823 38.804C591.823 41.612 594.307 42.53 596.629 42.53H598.951Z" fill="#E6342A"/>
<path d="M171.24 106H159.88V111.68C159.88 112.4 159.44 112.48 159.08 112.48H155.6C154.88 112.48 154.8 112.04 154.8 111.68V102.48C154.8 102.12 154.88 101.68 155.6 101.68H156.36C157.64 99.4 158.2 97.4 158.6 94.96C159.16 91.52 159.2 87.84 159.2 87.12L159.24 79.4C159.24 79.04 159.32 78.6 160.04 78.6H173.12C173.84 78.6 173.92 79.04 173.92 79.4V101.68H175.52C176.24 101.68 176.32 102.12 176.32 102.48V111.68C176.32 112.04 176.24 112.48 175.52 112.48H172.04C171.32 112.48 171.24 112.04 171.24 111.68V106ZM168.48 101.68V82.92H164.36V87.92C164.36 90.12 164 94.04 163.44 96.6C163 98.72 162.32 100.4 161.68 101.68H168.48Z" fill="#646363"/>
<path d="M196.751 94.84C196.751 102.56 193.791 106.52 187.911 106.52C182.111 106.52 179.271 102.68 179.271 94.84C179.271 89.6 180.991 83.8 188.031 83.8C193.791 83.8 196.751 87.56 196.751 94.84ZM191.391 95.12C191.391 89.8 190.111 87.84 188.031 87.84C185.991 87.84 184.591 90 184.591 95.24C184.591 100.48 185.951 102.48 188.031 102.48C190.031 102.48 191.391 100.44 191.391 95.12Z" fill="#646363"/>
<path d="M214.697 103.56C214.777 103.68 214.817 103.84 214.817 104C214.817 105.64 211.217 106.52 208.897 106.52C203.017 106.52 199.857 102.44 199.857 94.92C199.857 87.88 203.377 83.8 208.697 83.8C210.457 83.8 214.817 84.92 214.817 86.32C214.817 86.44 214.777 86.56 214.697 86.68L213.137 89.16C212.977 89.36 212.817 89.48 212.617 89.48C212.497 89.48 212.377 89.44 212.257 89.36C211.177 88.64 210.257 88.12 208.937 88.12C206.857 88.12 205.177 89.8 205.177 94.24C205.177 100.08 206.737 102.2 209.457 102.2C210.377 102.2 211.297 102 212.337 101.28C212.497 101.16 212.617 101.12 212.737 101.12C212.897 101.12 213.017 101.24 213.217 101.48L214.697 103.56Z" fill="#646363"/>
<path d="M231.487 85.2L230.687 88.16C230.527 88.68 230.367 88.76 229.767 88.76H225.727V105.16C225.727 105.84 225.527 106 224.807 106H221.447C220.727 106 220.567 105.84 220.567 105.16V88.76H216.407C215.727 88.76 215.527 88.64 215.527 87.96V85.12C215.527 84.48 215.687 84.32 216.407 84.32H230.727C231.327 84.32 231.527 84.48 231.527 84.84C231.527 84.96 231.527 85.04 231.487 85.2Z" fill="#646363"/>
<path d="M250.711 105.04C250.751 105.2 250.791 105.36 250.791 105.48C250.791 105.84 250.551 106 249.951 106H246.151C245.511 106 245.431 105.92 245.271 105.36L243.831 100.52H238.111L236.751 105.36C236.591 105.96 236.471 106 235.831 106H232.271C231.671 106 231.471 105.8 231.471 105.52C231.471 105.4 231.511 105.28 231.551 105.16L238.471 84.96C238.631 84.44 238.751 84.32 239.391 84.32H242.951C243.591 84.32 243.711 84.36 243.911 84.96L250.711 105.04ZM242.751 96.96L241.471 91.96C241.191 90.8 241.151 90.04 240.871 88.48C240.631 89.84 240.471 90.92 240.191 92L238.831 96.96H242.751Z" fill="#646363"/>
<path d="M269.628 99.8C269.628 102.56 267.748 105.04 265.228 105.64C263.988 105.92 263.308 106 260.868 106H254.988C254.268 106 254.108 105.84 254.108 105.16V85.12C254.108 84.48 254.268 84.32 254.988 84.32H260.588C264.348 84.32 265.628 84.6 266.908 85.72C268.108 86.72 268.748 88.32 268.748 89.96C268.748 92.16 267.868 93.6 265.668 94.64C268.188 95.4 269.628 97.32 269.628 99.8ZM263.868 90.28C263.868 88.72 262.948 88.12 260.668 88.12H258.908V93.08H260.748C262.828 93.08 263.868 92 263.868 90.28ZM264.588 99.4C264.588 97.68 263.508 96.88 260.548 96.88H258.908V101.96H260.428C263.468 101.96 264.588 101.36 264.588 99.4Z" fill="#646363"/>
<path d="M278.628 106H274.788C274.268 106 274.147 105.8 274.147 105.36V84.96C274.147 84.52 274.268 84.32 274.788 84.32H278.628C279.188 84.32 279.268 84.72 279.268 84.96V92.84H280.467C281.667 92.84 283.148 92.8 283.588 90.08L283.908 88.24C284.268 86.32 285.868 83.8 289.108 83.8C289.588 83.8 289.788 83.88 289.908 84.32L290.668 86.96C290.708 87.04 290.708 87.12 290.708 87.2C290.708 87.52 290.508 87.72 290.268 87.8L289.708 87.96C288.468 88.28 288.148 88.8 287.908 90.08L287.588 91.76C287.388 92.96 286.668 94.12 285.068 94.64V94.72C286.868 95.2 287.748 96.6 288.068 98.24L288.428 100.08C288.668 101.32 289.108 101.92 290.388 102.12L290.828 102.2C291.108 102.28 291.268 102.48 291.268 102.68C291.268 102.72 291.228 102.8 291.228 102.84L290.348 105.92C290.228 106.4 290.028 106.52 289.388 106.52C288.428 106.52 286.508 106.12 285.588 105.36C284.628 104.56 284.348 103.24 284.188 102.4L283.708 99.56C283.388 97.64 282.628 96.64 280.708 96.64H279.268V105.36C279.268 105.88 279.068 106 278.628 106Z" fill="#646363"/>
<path d="M311.453 105.04C311.493 105.2 311.533 105.36 311.533 105.48C311.533 105.84 311.293 106 310.693 106H306.893C306.253 106 306.173 105.92 306.013 105.36L304.573 100.52H298.853L297.493 105.36C297.333 105.96 297.213 106 296.573 106H293.013C292.413 106 292.213 105.8 292.213 105.52C292.213 105.4 292.253 105.28 292.293 105.16L299.213 84.96C299.373 84.44 299.493 84.32 300.133 84.32H303.693C304.333 84.32 304.453 84.36 304.653 84.96L311.453 105.04ZM303.493 96.96L302.213 91.96C301.933 90.8 301.893 90.04 301.613 88.48C301.373 89.84 301.213 90.92 300.933 92L299.573 96.96H303.493Z" fill="#646363"/>
<path d="M337.107 85.2L336.307 88.16C336.147 88.68 335.987 88.76 335.387 88.76H329.347V105.16C329.347 105.84 329.147 106 328.427 106H325.067C324.347 106 324.187 105.84 324.187 105.16V85.12C324.187 84.48 324.347 84.32 325.067 84.32H336.347C336.947 84.32 337.147 84.48 337.147 84.84C337.147 84.96 337.147 85.04 337.107 85.2Z" fill="#646363"/>
<path d="M355.468 90.36C355.468 94.68 352.108 97.64 347.468 97.64H345.868V105.16C345.868 105.84 345.668 106 344.988 106H341.668C340.948 106 340.788 105.84 340.788 105.16V85.12C340.788 84.44 340.948 84.32 341.668 84.32H347.268C353.668 84.32 355.468 86.52 355.468 90.36ZM350.628 90.6C350.628 88.56 349.508 88.24 347.108 88.24H345.868V93.4H346.788C349.548 93.4 350.628 92.8 350.628 90.6Z" fill="#646363"/>
<path d="M364.796 99.52H362.396C362.156 99.52 362.036 99.32 361.996 99.2L356.396 85C356.356 84.92 356.356 84.88 356.356 84.8C356.356 84.6 356.516 84.44 356.756 84.4L360.476 84.08C360.596 84.08 360.756 84.04 360.876 84.04C361.116 84.04 361.316 84.12 361.436 84.44L363.756 91.28C364.196 92.56 363.796 91.32 364.596 93.64C364.836 94.4 365.076 95 365.396 96.2H365.516C365.916 94.4 366.436 92.84 366.916 91.04L368.716 84.52C368.836 84.16 368.956 84.08 369.196 84.08L372.836 84.32C373.116 84.36 373.516 84.32 373.516 84.68C373.516 84.72 373.516 84.8 373.476 84.88L369.076 100C368.436 102.16 367.876 103.88 366.836 104.96C365.516 106.32 363.796 106.52 362.676 106.52C361.516 106.52 357.676 105.92 357.676 104.68C357.676 104.56 357.716 104.44 357.796 104.28L358.836 101.96C358.956 101.68 359.116 101.56 359.276 101.56C359.396 101.56 359.556 101.64 359.676 101.72C360.356 102.12 361.036 102.52 362.196 102.52C362.916 102.52 363.956 102.56 364.556 100.4L364.796 99.52Z" fill="#646363"/>
<path d="M379.164 96.12V93.56C379.164 93.28 379.164 92.96 379.804 92.96H381.004C382.244 92.96 384.284 92.52 384.284 90.4C384.284 89.56 383.804 87.8 381.284 87.8C379.244 87.8 377.964 89.32 377.004 89.32C376.844 89.32 376.724 89.24 376.644 89.08L375.524 87.04C375.404 86.84 375.324 86.68 375.324 86.52C375.324 85.64 378.404 83.8 381.964 83.8C384.204 83.8 389.044 84.76 389.044 89.8C389.044 92.04 387.964 93.64 386.084 94.52C389.284 95.52 389.724 98.24 389.724 99.76C389.724 101.24 389.484 103 388.044 104.44C386.124 106.36 383.164 106.52 381.684 106.52C379.324 106.52 374.804 105.72 374.804 104.16C374.804 104.04 374.804 103.96 374.884 103.84L376.124 101.4C376.244 101.12 376.444 101.04 376.604 101.04C376.764 101.04 376.924 101.12 377.044 101.2L377.644 101.56C378.244 101.92 379.564 102.52 381.204 102.52C383.724 102.52 384.684 101.12 384.684 99.56C384.684 97.56 383.364 96.76 381.284 96.76H379.804C379.204 96.76 379.164 96.4 379.164 96.12Z" fill="#646363"/>
<path d="M410.306 94.84C410.306 102.56 407.346 106.52 401.466 106.52C395.666 106.52 392.826 102.68 392.826 94.84C392.826 89.6 394.546 83.8 401.586 83.8C407.346 83.8 410.306 87.56 410.306 94.84ZM404.946 95.12C404.946 89.8 403.666 87.84 401.586 87.84C399.546 87.84 398.146 90 398.146 95.24C398.146 100.48 399.506 102.48 401.586 102.48C403.586 102.48 404.946 100.44 404.946 95.12Z" fill="#646363"/>
<path d="M430.332 99.8C430.332 102.56 428.452 105.04 425.932 105.64C424.692 105.92 424.012 106 421.572 106H415.692C414.972 106 414.812 105.84 414.812 105.16V85.12C414.812 84.48 414.972 84.32 415.692 84.32H421.292C425.052 84.32 426.332 84.6 427.612 85.72C428.812 86.72 429.452 88.32 429.452 89.96C429.452 92.16 428.572 93.6 426.372 94.64C428.892 95.4 430.332 97.32 430.332 99.8ZM424.572 90.28C424.572 88.72 423.652 88.12 421.372 88.12H419.612V93.08H421.452C423.532 93.08 424.572 92 424.572 90.28ZM425.292 99.4C425.292 97.68 424.212 96.88 421.252 96.88H419.612V101.96H421.132C424.172 101.96 425.292 101.36 425.292 99.4Z" fill="#646363"/>
<path d="M459.987 105.16C459.987 105.84 459.867 106 459.147 106H455.827C455.107 106 454.987 105.84 454.987 105.16V88.44H449.307V105.16C449.307 105.84 449.067 106 448.387 106H445.067C444.347 106 444.187 105.84 444.187 105.16V85.12C444.187 84.48 444.347 84.32 445.067 84.32H459.147C459.867 84.32 459.987 84.48 459.987 85.12V105.16Z" fill="#646363"/>
<path d="M481.985 94.84C481.985 102.56 479.025 106.52 473.145 106.52C467.345 106.52 464.505 102.68 464.505 94.84C464.505 89.6 466.225 83.8 473.265 83.8C479.025 83.8 481.985 87.56 481.985 94.84ZM476.625 95.12C476.625 89.8 475.345 87.84 473.265 87.84C471.225 87.84 469.825 90 469.825 95.24C469.825 100.48 471.185 102.48 473.265 102.48C475.265 102.48 476.625 100.44 476.625 95.12Z" fill="#646363"/>
<path d="M501.867 95.04V105.2C501.867 105.56 501.787 106 501.067 106H497.227C496.507 106 496.427 105.56 496.427 105.2V79.4C496.427 78.68 496.867 78.6 497.227 78.6H503.787C505.587 78.6 508.067 78.68 509.907 79.72C511.427 80.56 513.147 82.36 513.147 86.24C513.147 91.52 509.667 95.04 503.987 95.04H501.867ZM501.867 82.8V90.72H503.107C505.427 90.72 507.707 90.4 507.707 86.52C507.707 82.84 505.147 82.8 503.627 82.8H501.867Z" fill="#646363"/>
<path d="M534.485 94.84C534.485 102.56 531.525 106.52 525.645 106.52C519.845 106.52 517.005 102.68 517.005 94.84C517.005 89.6 518.725 83.8 525.765 83.8C531.525 83.8 534.485 87.56 534.485 94.84ZM529.125 95.12C529.125 89.8 527.845 87.84 525.765 87.84C523.725 87.84 522.325 90 522.325 95.24C522.325 100.48 523.685 102.48 525.765 102.48C527.765 102.48 529.125 100.44 529.125 95.12Z" fill="#646363"/>
<path d="M552.431 103.56C552.511 103.68 552.551 103.84 552.551 104C552.551 105.64 548.951 106.52 546.631 106.52C540.751 106.52 537.591 102.44 537.591 94.92C537.591 87.88 541.111 83.8 546.431 83.8C548.191 83.8 552.551 84.92 552.551 86.32C552.551 86.44 552.511 86.56 552.431 86.68L550.871 89.16C550.711 89.36 550.551 89.48 550.351 89.48C550.231 89.48 550.111 89.44 549.991 89.36C548.911 88.64 547.991 88.12 546.671 88.12C544.591 88.12 542.911 89.8 542.911 94.24C542.911 100.08 544.471 102.2 547.191 102.2C548.111 102.2 549.031 102 550.071 101.28C550.231 101.16 550.351 101.12 550.471 101.12C550.631 101.12 550.751 101.24 550.951 101.48L552.431 103.56Z" fill="#646363"/>
<path d="M569.502 103.56C569.582 103.68 569.622 103.84 569.622 104C569.622 105.64 566.022 106.52 563.702 106.52C557.822 106.52 554.662 102.44 554.662 94.92C554.662 87.88 558.182 83.8 563.502 83.8C565.262 83.8 569.622 84.92 569.622 86.32C569.622 86.44 569.582 86.56 569.502 86.68L567.942 89.16C567.782 89.36 567.622 89.48 567.422 89.48C567.302 89.48 567.182 89.44 567.062 89.36C565.982 88.64 565.062 88.12 563.742 88.12C561.662 88.12 559.982 89.8 559.982 94.24C559.982 100.08 561.542 102.2 564.262 102.2C565.182 102.2 566.102 102 567.142 101.28C567.302 101.16 567.422 101.12 567.542 101.12C567.702 101.12 567.822 101.24 568.022 101.48L569.502 103.56Z" fill="#646363"/>
<path d="M573.132 105.36V84.96C573.132 84.52 573.332 84.32 573.772 84.32H577.252C577.692 84.32 577.892 84.44 577.892 84.96V93.68C577.892 95.52 577.892 96.56 577.772 98.28H577.892C578.692 96.08 579.292 94.8 580.012 93.4L584.452 84.84C584.572 84.64 584.772 84.32 585.252 84.32H589.092C589.612 84.32 589.732 84.52 589.732 84.96V105.36C589.732 105.8 589.532 106 589.092 106H585.612C585.172 106 584.972 105.88 584.972 105.36V95.72C584.972 94.88 585.052 92.88 585.092 92.08H584.972C584.332 94.12 583.892 94.96 583.212 96.32L578.532 105.4C578.412 105.6 578.172 106 577.652 106H573.772C573.332 106 573.132 105.88 573.132 105.36Z" fill="#646363"/>
<path d="M595.671 105.36V84.96C595.671 84.52 595.871 84.32 596.311 84.32H599.791C600.231 84.32 600.431 84.44 600.431 84.96V93.68C600.431 95.52 600.431 96.56 600.311 98.28H600.431C601.231 96.08 601.831 94.8 602.551 93.4L606.991 84.84C607.111 84.64 607.311 84.32 607.791 84.32H611.631C612.151 84.32 612.271 84.52 612.271 84.96V105.36C612.271 105.8 612.071 106 611.631 106H608.151C607.711 106 607.511 105.88 607.511 105.36V95.72C607.511 94.88 607.591 92.88 607.631 92.08H607.511C606.871 94.12 606.431 94.96 605.751 96.32L601.071 105.4C600.951 105.6 600.711 106 600.191 106H596.311C595.871 106 595.671 105.88 595.671 105.36Z" fill="#646363"/>
</svg>
